# xmcd
#
# Track frame offsets: 
#        150
#        24610
#        40190
#        60052
#        93930
#        119552
#        142678
#        164796
#        182642
#        200958
#        204682
#        231926
#        246978
#        257480
#        267627
#        284139
#        306247
#        325197
#
# Disc length: 4540 seconds
#
# Revision: 7
# Processed by: cddbd v1.5.2PL0 Copyright (c) Steve Scherf et al.
# Submitted via: ExactAudioCopy v0.95b4
#
DISCID=1511ba12
DTITLE=Fleetwood Mac - The Complete Blue Horizon Sessions 1967-1969 [D
DTITLE=isc 5]
DYEAR=1971
DGENRE=Blues
TTITLE0=World's In A Tangle
TTITLE1=Talk With You
TTITLE2=Like It This Way
TTITLE3=Someday Soon Baby
TTITLE4=Hungry Country Girl
TTITLE5=Black Jack Blues
TTITLE6=Everyday I Have The Blues
TTITLE7=Rockin' Boogie
TTITLE8=My baby's gone
TTITLE9=Sugar Mama Take 1
TTITLE10=Sugar Mama
TTITLE11=Homework
TTITLE12=Honey Boy Blues
TTITLE13=I Need Your Love Take 1
TTITLE14=Horton's Boogie Woogie Take 2
TTITLE15=Have A Good Time
TTITLE16=That's wrong
TTITLE17=Rock Me Baby
EXTD=YEAR: 1999
EXTT0=
EXTT1=
EXTT2=
EXTT3=
EXTT4=
EXTT5=
EXTT6=
EXTT7=
EXTT8=
EXTT9=
EXTT10=
EXTT11=
EXTT12=
EXTT13=
EXTT14=
EXTT15=
EXTT16=
EXTT17=
PLAYORDER=
